<!--?xml version="1.0" standalone="no"?-->
              <svg id="sw-js-blob-svg" viewBox="0 0 100 100" xmlns="http://www.w3.org/2000/svg" version="1.1">
                    <defs> 
                        <linearGradient id="sw-gradient" x1="0" x2="1" y1="1" y2="0">
                            <stop id="stop1" stop-color="rgba(255, 137.852, 15.916, 1)" offset="0%"></stop>
                            <stop id="stop2" stop-color="rgba(208, 60, 60, 1)" offset="100%"></stop>
                        </linearGradient>
                    </defs>
                <path fill="url(#sw-gradient)" d="M14,-22.9C21.1,-20.2,31.9,-22.4,37.3,-19.4C42.7,-16.4,42.9,-8.2,41.9,-0.6C40.9,7,38.7,14.1,35,20C31.2,25.9,25.8,30.6,19.7,30.1C13.6,29.6,6.8,23.7,0.9,22.2C-5,20.7,-10.1,23.4,-13.8,22.6C-17.6,21.8,-20.1,17.4,-24.6,13C-29.2,8.7,-35.9,4.3,-38.5,-1.5C-41.1,-7.4,-39.7,-14.7,-36.2,-20.9C-32.6,-27.1,-27,-32.1,-20.7,-35.3C-14.3,-38.4,-7.1,-39.7,-1.8,-36.6C3.5,-33.4,6.9,-25.7,14,-22.9Z" width="100%" height="100%" transform="translate(50 50)" stroke-width="0" style="transition: all 0.3s ease 0s;" stroke="url(#sw-gradient)"></path>
              </svg>