<!--?xml version="1.0" standalone="no"?-->
              <svg id="sw-js-blob-svg" viewBox="0 0 100 100" xmlns="http://www.w3.org/2000/svg" version="1.1">
                    <defs> 
                        <linearGradient id="sw-gradient" x1="0" x2="1" y1="1" y2="0">
                            <stop id="stop1" stop-color="rgba(255, 137.852, 15.916, 1)" offset="0%"></stop>
                            <stop id="stop2" stop-color="rgba(208, 60, 60, 1)" offset="100%"></stop>
                        </linearGradient>
                    </defs>
                <path fill="url(#sw-gradient)" d="M21.9,-39.4C27.7,-34.5,31.5,-27.4,31.2,-20.5C30.8,-13.6,26.4,-6.8,23.9,-1.5C21.4,3.9,20.8,7.8,18.9,10.9C17,13.9,13.8,16.2,10.5,19.9C7.1,23.5,3.5,28.7,0,28.7C-3.5,28.6,-7.1,23.5,-12.4,21C-17.7,18.4,-24.9,18.4,-31.3,15.4C-37.7,12.3,-43.5,6.2,-42.1,0.8C-40.7,-4.5,-32.1,-9.1,-27.4,-15.1C-22.7,-21.2,-21.9,-28.8,-17.9,-34.8C-14,-40.8,-7,-45.2,0.5,-46.1C8,-47,16,-44.2,21.9,-39.4Z" width="100%" height="100%" transform="translate(50 50)" stroke-width="0" style="transition: all 0.3s ease 0s;" stroke="url(#sw-gradient)"></path>
              </svg>