<!--?xml version="1.0" standalone="no"?-->
              <svg id="sw-js-blob-svg" viewBox="0 0 100 100" xmlns="http://www.w3.org/2000/svg" version="1.1">
                    <defs> 
                        <linearGradient id="sw-gradient" x1="0" x2="1" y1="1" y2="0">
                            <stop id="stop1" stop-color="rgba(19.536, 43.205, 119.087, 1)" offset="0%"></stop>
                            <stop id="stop2" stop-color="rgba(5, 156, 163, 1)" offset="100%"></stop>
                        </linearGradient>
                    </defs>
                <path fill="url(#sw-gradient)" d="M10.8,-16.5C14.8,-16.4,19.3,-15.1,22.4,-12.1C25.6,-9.1,27.5,-4.6,29,0.8C30.4,6.2,31.3,12.4,29.5,17.7C27.6,23,22.9,27.3,17.6,27.9C12.2,28.5,6.1,25.4,-0.4,26C-6.8,26.6,-13.6,31,-15.4,28.3C-17.2,25.7,-14.1,16,-12.8,10.1C-11.4,4.2,-12,2.1,-12.6,-0.3C-13.2,-2.8,-13.8,-5.6,-12.8,-7.4C-11.8,-9.3,-9.2,-10.3,-6.7,-11.3C-4.3,-12.3,-2.2,-13.3,0.6,-14.4C3.4,-15.5,6.9,-16.7,10.8,-16.5Z" width="100%" height="100%" transform="translate(50 50)" stroke-width="0" style="transition: all 0.3s ease 0s;" stroke="url(#sw-gradient)"></path>
              </svg>