<!--?xml version="1.0" standalone="no"?-->
              <svg id="sw-js-blob-svg" viewBox="0 0 100 100" xmlns="http://www.w3.org/2000/svg" version="1.1">
                    <defs> 
                        <linearGradient id="sw-gradient" x1="0" x2="1" y1="1" y2="0">
                            <stop id="stop1" stop-color="rgba(38.793, 221.24, 218.149, 1)" offset="0%"></stop>
                            <stop id="stop2" stop-color="rgba(5, 156, 163, 1)" offset="100%"></stop>
                        </linearGradient>
                    </defs>
                <path fill="url(#sw-gradient)" d="M6.9,-14.7C9.2,-10.7,11.5,-9.3,18.2,-7.3C24.9,-5.3,36.1,-2.6,36,-0.1C35.9,2.5,24.5,5,19.9,10.7C15.2,16.3,17.4,25.1,15.2,27.9C13,30.8,6.5,27.7,0.3,27.3C-6,26.8,-12,29,-16.6,27.5C-21.1,26,-24.3,21,-27.5,15.8C-30.7,10.6,-33.9,5.3,-33.7,0.2C-33.4,-5,-29.6,-10,-24.8,-12.3C-19.9,-14.6,-14,-14.4,-9.7,-17.2C-5.4,-20.1,-2.7,-26.1,-0.2,-25.8C2.3,-25.4,4.6,-18.7,6.9,-14.7Z" width="100%" height="100%" transform="translate(50 50)" stroke-width="0" style="transition: all 0.3s ease 0s;" stroke="url(#sw-gradient)"></path>
              </svg>