<!--?xml version="1.0" standalone="no"?-->
              <svg id="sw-js-blob-svg" viewBox="0 0 100 100" xmlns="http://www.w3.org/2000/svg" version="1.1">
                    <defs> 
                        <linearGradient id="sw-gradient" x1="0" x2="1" y1="1" y2="0">
                            <stop id="stop1" stop-color="rgba(255, 137.852, 15.916, 1)" offset="0%"></stop>
                            <stop id="stop2" stop-color="rgba(208, 60, 60, 1)" offset="100%"></stop>
                        </linearGradient>
                    </defs>
                <path fill="url(#sw-gradient)" d="M16.6,-29.3C19.6,-26.9,18.9,-18.7,21.1,-12.9C23.2,-7,28.2,-3.5,27.3,-0.5C26.3,2.4,19.4,4.8,17.7,11.5C16.1,18.2,19.6,29.1,17.5,31.3C15.4,33.5,7.7,27,0.2,26.7C-7.4,26.4,-14.7,32.3,-16.6,30C-18.5,27.7,-14.9,17.1,-15.9,10.7C-16.9,4.4,-22.5,2.2,-24.9,-1.4C-27.3,-4.9,-26.5,-9.9,-24.7,-14.9C-22.9,-19.9,-20.1,-24.9,-15.8,-26.6C-11.5,-28.2,-5.8,-26.4,0.5,-27.3C6.8,-28.1,13.5,-31.6,16.6,-29.3Z" width="100%" height="100%" transform="translate(50 50)" stroke-width="0" style="transition: all 0.3s ease 0s;" stroke="url(#sw-gradient)"></path>
              </svg>