<!--?xml version="1.0" standalone="no"?-->
              <svg id="sw-js-blob-svg" viewBox="0 0 100 100" xmlns="http://www.w3.org/2000/svg" version="1.1">
                    <defs> 
                        <linearGradient id="sw-gradient" x1="0" x2="1" y1="1" y2="0">
                            <stop id="stop1" stop-color="rgba(38.793, 221.24, 218.149, 1)" offset="0%"></stop>
                            <stop id="stop2" stop-color="rgba(5, 156, 163, 1)" offset="100%"></stop>
                        </linearGradient>
                    </defs>
                <path fill="url(#sw-gradient)" d="M16.7,-29.1C22.4,-25.7,28.1,-22.6,30.4,-17.8C32.7,-13,31.6,-6.5,30.6,-0.6C29.7,5.4,28.9,10.8,27.1,16.5C25.3,22.3,22.6,28.3,17.9,32.6C13.2,36.9,6.6,39.5,0,39.6C-6.6,39.6,-13.3,37.1,-19.5,33.6C-25.7,30.2,-31.5,25.8,-34.5,20.1C-37.6,14.3,-38,7.2,-37.9,0C-37.9,-7.1,-37.4,-14.2,-34.4,-20.1C-31.4,-26,-26,-30.8,-19.8,-33.8C-13.7,-36.9,-6.8,-38.3,-0.6,-37.2C5.6,-36,11.1,-32.4,16.7,-29.1Z" width="100%" height="100%" transform="translate(50 50)" stroke-width="0" style="transition: all 0.3s ease 0s;" stroke="url(#sw-gradient)"></path>
              </svg>