<!--?xml version="1.0" standalone="no"?-->
              <svg id="sw-js-blob-svg" viewBox="0 0 100 100" xmlns="http://www.w3.org/2000/svg" version="1.1">
                    <defs> 
                        <linearGradient id="sw-gradient" x1="0" x2="1" y1="1" y2="0">
                            <stop id="stop1" stop-color="rgba(38.793, 221.24, 218.149, 1)" offset="0%"></stop>
                            <stop id="stop2" stop-color="rgba(5, 156, 163, 1)" offset="100%"></stop>
                        </linearGradient>
                    </defs>
                <path fill="url(#sw-gradient)" d="M17.7,-31.2C23.2,-27.6,27.9,-23.2,31.6,-17.9C35.3,-12.5,38,-6.3,38.5,0.3C39,6.9,37.4,13.8,34.5,20.5C31.6,27.3,27.5,33.9,21.5,37.5C15.6,41.1,7.8,41.8,1.1,39.9C-5.6,38.1,-11.3,33.7,-15.6,29.2C-20,24.6,-23.1,19.8,-26.4,15C-29.8,10.1,-33.5,5,-33.6,-0.1C-33.7,-5.1,-30.2,-10.3,-27.1,-15.7C-24.1,-21.2,-21.5,-26.9,-17,-31C-12.6,-35.2,-6.3,-37.8,-0.1,-37.7C6.2,-37.6,12.3,-34.8,17.7,-31.2Z" width="100%" height="100%" transform="translate(50 50)" stroke-width="0" style="transition: all 0.3s ease 0s;" stroke="url(#sw-gradient)"></path>
              </svg>