<!--?xml version="1.0" standalone="no"?-->
              <svg id="sw-js-blob-svg" viewBox="0 0 100 100" xmlns="http://www.w3.org/2000/svg" version="1.1">
                    <defs> 
                        <linearGradient id="sw-gradient" x1="0" x2="1" y1="1" y2="0">
                            <stop id="stop1" stop-color="rgba(31, 39, 251, 1)" offset="0%"></stop>
                            <stop id="stop2" stop-color="rgba(60, 208, 185, 1)" offset="100%"></stop>
                        </linearGradient>
                    </defs>
                <path fill="url(#sw-gradient)" d="M23.2,-35.9C28.6,-32.6,30.4,-23.7,33.9,-15.6C37.5,-7.5,42.8,-0.3,42.5,6.5C42.1,13.3,36.2,19.8,29.9,24.7C23.7,29.6,17.2,32.9,9.8,36.5C2.4,40.1,-5.8,43.9,-12,41.7C-18.2,39.5,-22.4,31.3,-27.2,24.4C-31.9,17.4,-37.3,11.8,-39.9,4.7C-42.5,-2.4,-42.4,-10.8,-39,-17.6C-35.6,-24.4,-28.9,-29.5,-21.9,-32C-14.8,-34.6,-7.4,-34.5,0.7,-35.6C8.9,-36.8,17.8,-39.2,23.2,-35.9Z" width="100%" height="100%" transform="translate(50 50)" stroke-width="0" style="transition: all 0.3s ease 0s;" stroke="url(#sw-gradient)"></path>
              </svg>